<?xml version="1.0" encoding="UTF-8" standalone="no"?><!DOCTYPE svg PUBLIC "-//W3C//DTD SVG 1.1//EN" "http://www.w3.org/Graphics/SVG/1.1/DTD/svg11.dtd"><svg width="100%" height="100%" viewBox="0 0 6184 3992" version="1.1" xmlns="http://www.w3.org/2000/svg" xmlns:xlink="http://www.w3.org/1999/xlink" xml:space="preserve" xmlns:serif="http://www.serif.com/" style="fill-rule:evenodd;clip-rule:evenodd;stroke-linejoin:round;stroke-miterlimit:2;"><g id="Background"><path d="M3311.87,1095.553c143.242,-68.716 205.763,-87.679 368.359,-110.266c167.137,-23.217 388.296,34 447.675,60.721c89.392,40.221 312.142,119.338 497.742,413.85c100.204,159.004 133.504,351.788 136.096,372.75c15.587,126.092 11.625,125.908 2.708,253.204c-3.883,55.433 -9.925,54.379 -13.079,85.292c-2.854,27.975 -8.004,26.596 -12.646,54.388c-3.667,21.967 -6.683,20.75 -11.446,42.533c-4.721,21.579 -7.567,20.25 -13.458,41.912c-17.117,62.946 -84.654,187.213 -115.167,229.517c-126.904,175.95 -216.75,231.721 -310.246,292.792c-128.85,84.167 -322.867,128.562 -372.696,133.217c-166.183,15.529 -166.304,10.863 -169.05,10.438c-116.321,-17.883 -117.237,-9.421 -127.083,-12.133c-29.904,-8.229 -29.896,-5.217 -60.229,-12.738c-55.537,-13.767 -55.35,-12.029 -59.854,-14.004c-23.304,-10.217 -118.142,-41.688 -132.517,-48.883c-104.088,-52.1 -105.008,-55.75 -104.138,-65.554l1.421,-4.971c108.317,-56.158 109.15,-77.183 150.688,-55.512c22.204,11.587 267.467,112.933 465.054,69.421c6.417,-1.413 196.858,-3.554 415.883,-166.188c188.271,-139.796 363.054,-413.163 339.546,-748.204c-13.742,-195.842 -113.808,-456.171 -331.017,-618.304c-154.3,-115.175 -170.908,-99.633 -262.304,-141.071c-1.154,-0.525 -105.633,-27.812 -107.683,-28.021c-27.638,-2.804 -138.242,-21.758 -229.896,-9.921c-92.925,12 -100.517,14.925 -108.746,18.092c-13.679,5.267 -87.958,7.983 -92.438,36.217c-11.187,70.458 15.479,63.508 75.346,101.567c5.2,3.304 10.767,6 15.967,9.304c80.725,45.546 80.112,64.104 116.35,47.533c2.775,-1.271 3.875,1.971 36.013,-12.604c3.746,-1.7 30.429,-5.717 72.408,-24.308c7.4,-3.279 9.45,2.887 95.933,-32.213c34.229,-13.892 34.042,-13.896 36.9,-14.858l6.746,10.608c-0.979,1.025 -214.308,153.425 -235.533,170.2c-189.383,142.3 -199.358,140.2 -195.029,156c2.979,10.863 154.85,189.996 168.633,206.25c132.346,156.1 129.354,166.717 146.567,162.196c3.15,-0.829 3.846,-1.008 17.629,-36.717c68.696,-177.983 75.617,-183.317 57.946,-202.667c-129.933,-142.3 -127.208,-152.271 -116.55,-164.362c87.779,-99.617 92.308,-94.908 178.775,-195.329c29.133,-33.837 16.512,11.246 23.696,55.358c7.9,48.508 0.083,60.638 54.9,80.196c28.204,10.062 182.633,80.054 211.596,90.354c58.3,20.737 33.942,39.129 30.667,52.737c-4.308,17.879 -52.088,216.258 -54.925,223.242c-3.333,8.204 -51.613,182.846 -60.938,235.467c-0.646,3.633 -8.6,18.35 -9.558,24.692c-6.442,42.588 -22.496,86.646 -23.5,90.787c-12.058,49.804 -13.079,49.496 -13.775,53.892c-7.254,45.746 -11.879,44.267 -12.492,48.204c-3.371,21.762 -6.367,20.613 -10.967,42.583c-9.454,45.167 -12.208,44.146 -12.9,48.062c-15.788,89.354 -26.792,106.733 -54.583,114.425c-54.171,14.992 -216.546,72.5 -235.262,79.129c-142.871,50.6 -142.358,52.462 -157.192,53.283c-9.992,0.55 -13.913,0.767 -73.162,-101.454c-47.188,-73.6 -45.225,-76.383 -53.796,-78.275c-15.071,-3.325 -433.246,221.4 -440.612,222.65c-19.179,3.254 -140.704,-126.767 -222.3,-302.379c-20.183,-43.433 -16.796,-44.383 -18.55,-48.117c-47.625,-101.229 -68.292,-287.188 -68.421,-289.454c-9.075,-160.538 16.412,-243.008 23.721,-296.308c1.571,-11.454 7.758,-18.392 8.721,-23.554c4.558,-24.421 5.896,-23.617 12.475,-48.058c39.404,-146.4 150.246,-302.913 181.117,-337.638c139.333,-156.725 224.792,-200.325 268.779,-227.313c0.181,0.18 21.31,-11.262 37.672,-21.678l0.011,-0.006Zm677.75,1217.994c22.646,2.125 32.45,-132.76 35.692,-166.765c8.008,-84.013 30.467,-105.629 -6.837,-104.967c-141.796,2.517 -145.304,14.438 -143.558,25.979c0.413,2.721 108.392,233.852 114.704,245.752Z" style="fill:#fff;"/><path d="M1379.167,2478.404c-9.929,14.879 -9.254,14.85 -19.1,29.542c-66.033,98.546 -106.142,106.488 -136.017,129.933c-6.992,3.938 -66.65,37.537 -91.829,40.283c-25.079,2.733 -23.888,6.85 -48.425,11.229c-29.017,5.179 -516.688,2.721 -561.617,2.496c-33.937,-0.171 -10.267,-27.679 -7.862,-38.496c9.75,-43.821 48.321,-159.775 52.904,-173.546c6.625,-19.917 53.608,-4.25 58.933,-18.637c2.758,-7.45 1.137,-948.9 0.867,-955.158c-0.817,-19.004 -10.404,-10.229 -44.05,-13.15c-23.738,-2.058 -34.196,-74.725 -45.958,-108.046c-1.675,-4.746 -19.925,-56.438 -20.558,-59.458c-8.308,-39.437 -23,-53.987 5.812,-55.1c13.054,-0.504 100.975,-3.896 163.275,-1.35c165.525,6.762 339.042,-10.963 446.929,25.587c116.146,39.346 191.121,147.896 203.017,165.121c91.471,132.438 62.2,320.625 51.237,361.142c-24.625,91.033 -52.504,124.692 -59.983,133.721c-26.617,32.138 -6.175,35.321 20.425,67.583c28.467,34.525 72.283,137.267 78.058,197.288c15.067,156.588 -44.021,254.242 -46.058,259.029l0,-0.013Zm-236.631,-915.919c-49.763,-55.112 -55.89,-47.54 -119.327,-66.448c-14.883,-4.433 -161.513,-5.142 -167.842,-0.079c-5.15,4.121 -5.125,48.633 -5.121,52.883c0.187,308.246 -1.275,309.433 3.967,314.263c10.317,9.504 12.004,4.958 175.288,3.771c13.587,-0.1 109.379,-0.796 136.121,-101.592c4.537,-17.1 38.156,-127.081 -23.085,-202.798Zm60.123,668.969c-17.8,-82.888 -72.112,-111.675 -95.875,-124.371c-54.729,-29.238 -250.771,-13.8 -251.367,-13.333c-8.483,6.688 -8.183,366.704 -0.171,371.513c1.208,0.725 207.163,12.387 253.679,-15.162c111.588,-66.088 95.838,-147.242 93.733,-218.646Z" style="fill:#fff;"/><path d="M5100.333,1372.171c-2.208,3.538 94.854,41.179 123.471,111.258c13.796,33.787 51.196,101.008 77.854,160.704c11.533,25.825 14.692,23.675 157.162,316.708c64.438,132.533 61.867,133.662 67.521,145.154c3.038,6.175 3.767,5.042 7.846,10.508c6.313,9.021 5.896,9.513 6.817,9.742c3.754,0.925 2.708,-3.367 6.504,-2.433c1.817,-15.863 -3.971,-14.825 -4.979,-31.229c-2.212,-36 -7.021,-679.517 2.642,-695.504c3.442,-5.696 202.533,-120.504 210.962,-116.987c7.467,3.112 6.579,6.329 6.579,631.063c0,765.621 0.396,766.946 -2.892,768.775c-10.962,6.096 -13.158,4.429 -141.542,-67.483c-121.788,-68.217 -132.021,-59.417 -153.633,-104.65c-22.279,-46.629 -262.142,-548.675 -277.192,-583.492c-3.992,-9.233 -17.663,-35.579 -19.254,-38.646c-4.412,-8.504 -11.488,-27.846 -12.387,-30.304c-23.596,-64.513 -15.671,19.262 -16.275,152.454c-2.483,546.633 13.817,558.142 -17.725,576.967c-6.792,4.05 -14.246,6.912 -21.038,10.963c-80.117,42.333 -168.483,104.171 -178.333,90.312c-7.425,-10.442 -2.992,-12.275 -4.7,-1390.833c-0.042,-32.688 31.983,-7.167 146.7,57.975c2.825,1.604 19.792,11.237 35.892,18.979Z" style="fill:#fff;"/><path d="M2672.113,2478.692c65.038,205.075 65.038,205.058 65.029,205.079c-3.546,8.258 -43.229,8.213 -47.05,8.208c-458.5,-0.508 -777.625,1.108 -785.213,-1.296c-14.65,-4.638 15.346,-129.712 18.879,-139.292c14.487,-39.292 -5.779,-45.771 38.963,-128.2c18.262,-33.646 18.217,-33.233 36.404,-66.65c27.683,-50.867 258.433,-474.85 342.367,-637.833c63.713,-123.725 126.787,-216.808 107.167,-224.425c-2.125,-0.825 -377.842,-0.3 -410.7,-0.254c-52.208,0.075 -67.938,13.842 -83.383,-36.062c-51.471,-166.312 -58.533,-168.9 -48.479,-179.904c9.654,-10.567 13.083,-5.171 759.858,-5.554c54.425,-0.029 87.258,-9.65 68.6,41.317c-16.183,44.204 -3.979,46.921 -12.054,72.537c-8.546,27.112 -21.558,115.429 -22.25,119.825c-1.521,9.617 -488.546,932.696 -494.325,941.817c-18.142,28.629 51.225,20.017 73.571,20.021c376.442,0.033 379.054,-1.792 392.612,10.671l0.004,-0.004Z" style="fill:#fff;"/><path d="M1776.746,2653.875c-0.938,25.025 3.842,27.062 -5.446,34.775c-2.196,1.825 -208.942,9.483 -216.188,-4.683c-1.896,-3.704 -5.25,-1397.654 1.829,-1405.658c13.662,-15.438 209.821,-7.054 213.375,-4.55c7.288,5.129 6.458,7.683 6.458,631.362c-0.008,249.583 -0.021,499.171 -0.029,748.754Z" style="fill:#fff;"/></g></svg>