<?xml version="1.0" encoding="UTF-8" standalone="no"?><!DOCTYPE svg PUBLIC "-//W3C//DTD SVG 1.1//EN" "http://www.w3.org/Graphics/SVG/1.1/DTD/svg11.dtd"><svg width="100%" height="100%" viewBox="0 0 1484 958" version="1.1" xmlns="http://www.w3.org/2000/svg" xmlns:xlink="http://www.w3.org/1999/xlink" xml:space="preserve" xmlns:serif="http://www.serif.com/" style="fill-rule:evenodd;clip-rule:evenodd;stroke-linejoin:round;stroke-miterlimit:2;"><g id="Background"><path d="M794.846,262.934c34.38,-16.493 49.385,-21.044 88.409,-26.465c40.113,-5.572 93.191,8.16 107.442,14.573c21.454,9.653 74.914,28.641 119.458,99.324c24.049,38.161 32.041,84.429 32.663,89.46c3.741,30.262 2.79,30.218 0.65,60.769c-0.932,13.304 -2.382,13.051 -3.139,20.47c-0.685,6.714 -1.921,6.383 -3.035,13.053c-0.88,5.272 -1.604,4.98 -2.747,10.208c-1.133,5.179 -1.816,4.86 -3.23,10.059c-4.108,15.107 -20.317,44.931 -27.64,55.084c-30.457,42.228 -52.02,55.613 -74.459,70.27c-30.924,20.2 -77.488,30.855 -89.447,31.972c-39.884,3.727 -39.913,2.607 -40.572,2.505c-27.917,-4.292 -28.137,-2.261 -30.5,-2.912c-7.177,-1.975 -7.175,-1.252 -14.455,-3.057c-13.329,-3.304 -13.284,-2.887 -14.365,-3.361c-5.593,-2.452 -28.354,-10.005 -31.804,-11.732c-24.981,-12.504 -25.202,-13.38 -24.993,-15.733l0.341,-1.193c25.996,-13.478 26.196,-18.524 36.165,-13.323c5.329,2.781 64.192,27.104 111.613,16.661c1.54,-0.339 47.246,-0.853 99.812,-39.885c45.185,-33.551 87.133,-99.159 81.491,-179.569c-3.298,-47.002 -27.314,-109.481 -79.444,-148.393c-37.032,-27.642 -41.018,-23.912 -62.953,-33.857c-0.277,-0.126 -25.352,-6.675 -25.844,-6.725c-6.633,-0.673 -33.178,-5.222 -55.175,-2.381c-22.302,2.88 -24.124,3.582 -26.099,4.342c-3.283,1.264 -21.11,1.916 -22.185,8.692c-2.685,16.91 3.715,15.242 18.083,24.376c1.248,0.793 2.584,1.44 3.832,2.233c19.374,10.931 19.227,15.385 27.924,11.408c0.666,-0.305 0.93,0.473 8.643,-3.025c0.899,-0.408 7.303,-1.372 17.378,-5.834c1.776,-0.787 2.268,0.693 23.024,-7.731c8.215,-3.334 8.17,-3.335 8.856,-3.566c0.54,0.849 1.08,1.698 1.619,2.546c-0.235,0.246 -51.434,36.822 -56.528,40.848c-45.452,34.152 -47.846,33.648 -46.807,37.44c0.715,2.607 37.164,45.599 40.472,49.5c31.763,37.464 31.045,40.012 35.176,38.927c0.756,-0.199 0.923,-0.242 4.231,-8.812c16.487,-42.716 18.148,-43.996 13.907,-48.64c-31.184,-34.152 -30.53,-36.545 -27.972,-39.447c21.067,-23.908 22.154,-22.778 42.906,-46.879c6.992,-8.121 3.963,2.699 5.687,13.286c1.896,11.642 0.02,14.553 13.176,19.247c6.769,2.415 43.832,19.213 50.783,21.685c13.992,4.977 8.146,9.391 7.36,12.657c-1.034,4.291 -12.501,51.902 -13.182,53.578c-0.8,1.969 -12.387,43.883 -14.625,56.512c-0.155,0.872 -2.064,4.404 -2.294,5.926c-1.546,10.221 -5.399,20.795 -5.64,21.789c-2.894,11.953 -3.139,11.879 -3.306,12.934c-1.741,10.979 -2.851,10.624 -2.998,11.569c-0.809,5.223 -1.528,4.947 -2.632,10.22c-2.269,10.84 -2.93,10.595 -3.096,11.535c-3.789,21.445 -6.43,25.616 -13.1,27.462c-13.001,3.598 -51.971,17.4 -56.463,18.991c-34.289,12.144 -34.166,12.591 -37.726,12.788c-2.398,0.132 -3.339,0.184 -17.559,-24.349c-11.325,-17.664 -10.854,-18.332 -12.911,-18.786c-3.617,-0.798 -103.979,53.136 -105.747,53.436c-4.603,0.781 -33.769,-30.424 -53.352,-72.571c-4.844,-10.424 -4.031,-10.652 -4.452,-11.548c-11.43,-24.295 -16.39,-68.925 -16.421,-69.469c-2.178,-38.529 3.939,-58.322 5.693,-71.114c0.377,-2.749 1.862,-4.414 2.093,-5.653c1.094,-5.861 1.415,-5.668 2.994,-11.534c9.457,-35.136 36.059,-72.699 43.468,-81.033c33.44,-37.614 53.95,-48.078 64.507,-54.555c2.304,2.292 7.542,7.609 6.522,1.926c-0.983,-5.472 4.406,-1.003 5.376,-1.449c0.462,-0.213 2.465,-1.299 -2.854,-5.681l75.654,156.584c-1.575,-1.398 -1.519,-1.515 -1.701,-1.51c-2.831,0.08 -0.531,5.039 1.385,2.94c0.329,-0.36 -0.013,-1.069 0.316,-1.43l-75.654,-156.584Z" style="fill:#fff;fill-opacity:1;"/><path d="M331,594.817c-2.383,3.571 -2.221,3.564 -4.584,7.09c-15.848,23.651 -25.474,25.557 -32.644,31.184c-1.678,0.945 -15.996,9.009 -22.039,9.668c-6.019,0.656 -5.733,1.644 -11.622,2.695c-6.964,1.243 -124.005,0.653 -134.788,0.599c-8.145,-0.041 -2.464,-6.643 -1.887,-9.239c2.34,-10.517 11.597,-38.346 12.697,-41.651c1.59,-4.78 12.866,-1.02 14.144,-4.473c0.662,-1.788 0.273,-227.736 0.208,-229.238c-0.196,-4.561 -2.497,-2.455 -10.572,-3.156c-5.697,-0.494 -8.207,-17.934 -11.03,-25.931c-0.402,-1.139 -4.782,-13.545 -4.934,-14.27c-1.994,-9.465 -5.52,-12.957 1.395,-13.224c3.133,-0.121 24.234,-0.935 39.186,-0.324c39.726,1.623 81.37,-2.631 107.263,6.141c27.875,9.443 45.869,35.495 48.724,39.629c21.953,31.785 14.928,76.95 12.297,86.674c-5.91,21.848 -12.601,29.926 -14.396,32.093c-6.388,7.713 -1.482,8.477 4.902,16.22c6.832,8.286 17.348,32.944 18.734,47.349c3.616,37.581 -10.565,61.018 -11.054,62.167Z" style="fill:#fff;fill-opacity:1;"/><path d="M1224.08,329.321c-0.53,0.849 -1.854,0.976 -2.384,1.825c-0.045,0.073 0.688,2.736 0.784,2.827c0.434,0.418 1.23,0.377 1.341,0.371c3.31,-0.172 4.64,-2.312 4.788,-2.386c16.042,8.466 18.236,7.246 25.104,24.065c3.311,8.109 12.287,24.242 18.685,38.569c2.768,6.198 3.526,5.682 37.719,76.01c15.465,31.808 14.848,32.079 16.205,34.837c0.729,1.482 0.904,1.21 1.883,2.522c1.515,2.165 1.415,2.283 1.636,2.338c0.901,0.222 0.65,-0.808 1.561,-0.584c0.436,-3.807 -0.953,-3.558 -1.195,-7.495c-0.531,-8.64 -1.685,-163.084 0.634,-166.921c0.826,-1.367 48.608,-28.921 50.631,-28.077c1.792,0.747 1.579,1.519 1.579,151.455c-0,183.749 0.095,184.067 -0.694,184.506c-2.631,1.463 -3.158,1.063 -33.97,-16.196c-29.229,-16.372 -31.685,-14.26 -36.872,-25.116c-5.347,-11.191 -62.914,-131.682 -66.526,-140.038c-0.958,-2.216 -4.239,-8.539 -4.621,-9.275c-1.059,-2.041 -2.757,-6.683 -2.973,-7.273c-5.663,-15.483 -3.761,4.623 -3.906,36.589c-0.596,131.192 3.316,133.954 -4.254,138.472c-1.63,0.972 -3.419,1.659 -5.049,2.631c-19.228,10.16 -40.436,25.001 -42.8,21.675c-1.782,-2.506 -0.718,-2.946 -1.128,-333.8c-0.01,-7.845 7.676,-1.72 35.208,13.914c0.678,0.385 4.75,2.697 8.614,4.555l63.373,146.75c3.262,3.416 2.879,-1.732 1.639,-1.75c-0.192,-0.003 -0.121,0.13 -1.639,1.75l-63.373,-146.75Z" style="fill:#fff;fill-opacity:1;"/><path d="M641.307,594.886c15.609,49.218 15.609,49.214 15.607,49.219c-0.851,1.982 -10.375,1.971 -11.292,1.97c-110.04,-0.122 -186.63,0.266 -188.451,-0.311c-3.516,-1.113 3.683,-31.131 4.531,-33.43c3.477,-9.43 -1.387,-10.985 9.351,-30.768c4.383,-8.075 4.372,-7.976 8.737,-15.996c6.644,-12.208 62.024,-113.964 82.168,-153.08c15.291,-29.694 30.429,-52.034 25.72,-53.862c-0.51,-0.198 -90.682,-0.072 -98.568,-0.061c-12.53,0.018 -16.305,3.322 -20.012,-8.655c-12.353,-39.915 -14.048,-40.536 -11.635,-43.177c2.317,-2.536 3.14,-1.241 182.366,-1.333c13.062,-0.007 20.942,-2.316 16.464,9.916c-3.884,10.609 -0.955,11.261 -2.893,17.409c-2.051,6.507 -5.174,27.703 -5.34,28.758c-0.365,2.308 -117.251,223.847 -118.638,226.036c-4.354,6.871 12.294,4.804 17.657,4.805c90.346,0.008 90.973,-0.43 94.227,2.561Z" style="fill:#fff;fill-opacity:1;"/><path d="M426.419,636.93c-0.225,6.006 0.922,6.495 -1.307,8.346c-0.527,0.438 -50.146,2.276 -51.885,-1.124c-0.455,-0.889 -1.26,-335.437 0.439,-337.358c3.279,-3.705 50.357,-1.693 51.21,-1.092c1.749,1.231 1.55,1.844 1.55,151.527c-0.002,59.9 -0.005,119.801 -0.007,179.701Z" style="fill:#fff;fill-opacity:1;"/><path d="M288.638,535.549c0.505,17.137 4.285,36.614 -22.496,52.475c-11.164,6.612 -60.593,3.813 -60.883,3.639c-1.923,-1.154 -1.995,-87.558 0.041,-89.163c0.143,-0.112 47.193,-3.817 60.328,3.2c5.703,3.047 18.738,9.956 23.01,29.849Z" style="fill:#050606;"/><path d="M274.209,374.997c14.698,18.172 6.629,44.567 5.54,48.671c-6.418,24.191 -29.408,24.358 -32.669,24.382c-39.188,0.285 -39.593,1.376 -42.069,-0.905c-1.258,-1.159 -0.907,-1.444 -0.952,-75.423c-0.001,-1.02 -0.007,-11.703 1.229,-12.692c1.519,-1.215 36.71,-1.045 40.282,0.019c15.225,4.538 16.695,2.72 28.638,15.947Z" style="fill:#070707;fill-opacity:1;"/><path d="M957.509,555.251c-1.515,-2.856 -27.43,-58.327 -27.529,-58.98c-0.419,-2.77 0.423,-5.631 34.454,-6.235c8.953,-0.159 3.563,5.029 1.641,25.192c-0.778,8.161 -2.153,7.814 -2.892,15.938c-0.659,7.244 -2.518,6.892 -2.855,15.94c-0.204,5.471 2.616,8.656 -2.819,8.146Z" style="fill:#0d0e0e;fill-opacity:1;"/></g></svg>