<?xml version="1.0" encoding="UTF-8" standalone="no"?>
<svg width="100%" height="100%" viewBox="0 0 1497 1498" xmlns="http://www.w3.org/2000/svg" style="fill-rule:evenodd;clip-rule:evenodd;stroke-linejoin:round;stroke-miterlimit:2;">
  <rect width="1497" height="1498" fill="#000"/>
  <path d="M400.818,86.766c107.431,-51.537 154.322,-65.759 276.269,-82.699c125.353,-17.413 291.222,25.5 335.756,45.541c67.044,30.166 234.106,89.503 373.306,310.388c75.153,119.253 100.128,263.841 102.072,279.562c11.691,94.569 8.719,94.431 2.031,189.903c-2.912,41.575 -7.444,40.784 -9.809,63.969c-2.141,20.981 -6.003,19.947 -9.484,40.791c-2.75,16.475 -5.013,15.563 -8.584,31.9c-3.541,16.184 -5.675,15.188 -10.094,31.434c-12.837,47.209 -63.491,140.409 -86.375,172.138c-95.178,131.962 -162.562,173.791 -232.684,219.594c-96.637,63.125 -242.15,96.422 -279.522,99.912c-124.638,11.647 -124.728,8.147 -126.788,7.828c-87.241,-13.413 -87.928,-7.066 -95.312,-9.1c-22.428,-6.172 -22.422,-3.912 -45.172,-9.553c-41.653,-10.325 -41.512,-9.022 -44.891,-10.503c-17.478,-7.662 -88.606,-31.266 -99.387,-36.662c-78.066,-39.075 -78.756,-41.812 -78.103,-49.166l1.066,-3.728c81.238,-42.119 81.863,-57.887 113.016,-41.634c16.653,8.691 200.6,84.7 348.791,52.066c4.812,-1.059 147.644,-2.666 311.912,-124.641c141.203,-104.847 272.291,-309.872 254.659,-561.153c-10.306,-146.881 -85.356,-342.128 -248.262,-463.728c-115.725,-86.381 -128.181,-74.725 -196.728,-105.803c-0.866,-0.394 -79.225,-20.859 -80.762,-21.016c-20.728,-2.103 -103.681,-16.319 -172.422,-7.441c-69.694,9 -75.388,11.194 -81.559,13.569c-10.259,3.95 -65.969,5.987 -69.328,27.163c-8.391,52.844 11.609,47.631 56.509,76.175c3.9,2.478 8.075,4.5 11.975,6.978c60.544,34.159 60.084,48.078 87.263,35.65c2.081,-0.953 2.906,1.478 27.009,-9.453c2.809,-1.275 22.822,-4.288 54.306,-18.231c5.55,-2.459 7.088,2.166 71.95,-24.159c25.672,-10.419 25.531,-10.422 27.675,-11.144l5.059,7.956c-0.734,0.769 -160.731,115.069 -176.65,127.65c-142.037,106.725 -149.519,105.15 -146.272,117c2.234,8.147 116.137,142.497 126.475,154.688c99.259,117.075 97.016,125.037 109.925,121.647c2.362,-0.622 2.884,-0.756 13.222,-27.537c51.522,-133.487 56.713,-137.487 43.459,-152c-97.45,-106.725 -95.406,-114.203 -87.412,-123.272c65.834,-74.713 69.231,-71.181 134.081,-146.497c21.85,-25.378 12.384,8.434 17.772,41.519c5.925,36.381 0.062,45.478 41.175,60.147c21.153,7.547 136.975,60.041 158.697,67.766c43.725,15.553 25.456,29.347 23,39.553c-3.231,13.409 -39.066,162.194 -41.194,167.431c-2.5,6.153 -38.709,137.134 -45.703,176.6c-0.484,2.725 -6.45,13.763 -7.169,18.519c-4.831,31.941 -16.872,64.984 -17.625,68.091c-9.044,37.353 -9.809,37.122 -10.331,40.419c-5.441,34.309 -8.909,33.2 -9.369,36.153c-2.528,16.322 -4.775,15.459 -8.225,31.938c-7.091,33.875 -9.156,33.109 -9.675,36.047c-11.841,67.016 -20.094,80.05 -40.938,85.819c-40.628,11.244 -162.409,54.375 -176.447,59.347c-107.153,37.95 -106.769,39.347 -117.894,39.962c-7.494,0.412 -10.434,0.575 -54.872,-76.091c-35.391,-55.2 -33.919,-57.287 -40.347,-58.706c-11.303,-2.494 -324.934,166.05 -330.459,166.988c-14.384,2.441 -105.528,-95.075 -166.725,-226.784c-15.138,-32.575 -12.597,-33.288 -13.912,-36.088c-35.719,-75.922 -51.219,-215.391 -51.316,-217.091c-6.806,-120.403 12.309,-182.256 17.791,-222.231c1.178,-8.591 5.819,-13.794 6.541,-17.666c3.419,-18.316 4.422,-17.712 9.356,-36.044c29.553,-109.8 112.684,-227.184 135.837,-253.228c104.5,-117.544 168.594,-150.244 201.584,-170.484c0.136,0.135 15.982,-8.447 28.254,-16.258l0.008,-0.005Zm508.313,913.496c16.984,1.594 24.338,-99.57 26.769,-125.073c6.006,-63.009 22.85,-79.222 -5.128,-78.725c-106.347,1.888 -108.978,10.828 -107.669,19.484c0.309,2.041 81.294,175.389 86.028,184.314Z" fill="#fff"/>
</svg>
