<?xml version="1.0" encoding="UTF-8" standalone="no"?><!DOCTYPE svg PUBLIC "-//W3C//DTD SVG 1.1//EN" "http://www.w3.org/Graphics/SVG/1.1/DTD/svg11.dtd"><svg width="100%" height="100%" viewBox="0 0 417 417" version="1.1" xmlns="http://www.w3.org/2000/svg" xmlns:xlink="http://www.w3.org/1999/xlink" xml:space="preserve" xmlns:serif="http://www.serif.com/" style="fill-rule:evenodd;clip-rule:evenodd;stroke-linejoin:round;stroke-miterlimit:2;"><rect x="0" y="0" width="416.667" height="416.667"/><path d="M116.615,44.724c28.377,-12.736 40.762,-16.25 72.972,-20.436c33.109,-4.303 76.919,6.301 88.682,11.253c17.708,7.454 61.833,22.116 98.599,76.697c19.85,29.468 26.446,65.195 26.959,69.08c3.088,23.368 2.303,23.334 0.536,46.925c-0.769,10.273 -1.966,10.078 -2.591,15.807c-0.565,5.185 -1.586,4.929 -2.505,10.079c-0.727,4.071 -1.324,3.846 -2.267,7.883c-0.935,3.999 -1.499,3.753 -2.666,7.767c-3.391,11.665 -16.77,34.695 -22.814,42.535c-25.139,32.608 -42.937,42.944 -61.457,54.262c-25.524,15.598 -63.958,23.826 -73.829,24.689c-32.92,2.878 -32.944,2.013 -33.487,1.935c-23.042,-3.314 -23.224,-1.746 -25.174,-2.248c-5.924,-1.525 -5.922,-0.967 -11.931,-2.361c-11.002,-2.552 -10.965,-2.23 -11.857,-2.596c-4.616,-1.893 -23.403,-7.726 -26.251,-9.06c-20.619,-9.655 -20.801,-10.332 -20.629,-12.149l0.281,-0.921c21.457,-10.408 21.622,-14.304 29.85,-10.288c4.398,2.147 52.983,20.929 92.124,12.865c1.271,-0.262 38.996,-0.659 82.383,-30.799c37.295,-25.908 71.919,-76.57 67.261,-138.661c-2.722,-36.295 -22.544,-84.54 -65.572,-114.588c-30.565,-21.345 -33.856,-18.465 -51.961,-26.144c-0.228,-0.097 -20.925,-5.154 -21.331,-5.193c-5.475,-0.519 -27.385,-4.033 -45.54,-1.839c-18.408,2.224 -19.912,2.766 -21.542,3.353c-2.71,0.976 -17.424,1.48 -18.311,6.712c-2.216,13.057 3.066,11.77 14.926,18.823c1.03,0.612 2.133,1.112 3.163,1.725c15.991,8.44 15.869,11.88 23.048,8.809c0.55,-0.235 0.768,0.366 7.134,-2.336c0.742,-0.315 6.028,-1.059 14.344,-4.505c1.466,-0.608 1.872,0.535 19.004,-5.97c6.781,-2.575 6.744,-2.575 7.309,-2.754c0.446,0.655 0.891,1.311 1.337,1.966c-0.194,0.19 -42.453,28.433 -46.658,31.542c-37.516,26.372 -39.492,25.983 -38.634,28.911c0.59,2.013 30.675,35.211 33.406,38.224c26.217,28.93 25.625,30.897 29.034,30.059c0.624,-0.153 0.762,-0.187 3.492,-6.805c13.608,-32.985 14.979,-33.973 11.479,-37.56c-25.739,-26.372 -25.199,-28.219 -23.088,-30.461c17.389,-18.461 18.286,-17.589 35.414,-36.2c5.771,-6.271 3.271,2.084 4.694,10.259c1.565,8.99 0.016,11.238 10.876,14.862c5.587,1.865 36.178,14.836 41.916,16.745c11.548,3.843 6.724,7.252 6.074,9.773c-0.853,3.314 -10.318,40.078 -10.881,41.372c-0.661,1.52 -10.224,33.886 -12.072,43.638c-0.128,0.673 -1.704,3.401 -1.894,4.576c-1.276,7.893 -4.457,16.057 -4.655,16.826c-2.389,9.23 -2.591,9.173 -2.729,9.988c-1.437,8.478 -2.353,8.204 -2.474,8.934c-0.667,4.033 -1.261,3.82 -2.173,7.892c-1.873,8.371 -2.418,8.181 -2.555,8.908c-3.128,16.56 -5.308,19.781 -10.812,21.206c-10.731,2.778 -42.896,13.436 -46.604,14.665c-28.302,9.378 -28.201,9.723 -31.139,9.875c-1.979,0.102 -2.756,0.142 -14.493,-18.802c-9.348,-13.64 -8.959,-14.156 -10.657,-14.507c-2.985,-0.616 -85.823,41.031 -87.283,41.263c-3.799,0.603 -27.872,-23.493 -44.037,-56.039c-3.998,-8.049 -3.327,-8.225 -3.675,-8.917c-9.434,-18.761 -13.528,-53.223 -13.554,-53.643c-1.797,-29.752 3.251,-45.036 4.699,-54.913c0.311,-2.123 1.537,-3.409 1.728,-4.365c0.903,-4.526 1.168,-4.377 2.471,-8.907c7.806,-27.132 29.763,-56.138 35.878,-62.573c27.601,-29.045 44.53,-37.125 53.243,-42.127c1.902,1.77 6.225,5.876 5.383,1.487c-0.811,-4.225 3.637,-0.775 4.437,-1.119c0.381,-0.164 2.035,-1.003 -2.356,-4.387l62.444,120.912c-1.3,-1.08 -1.254,-1.17 -1.404,-1.166c-2.336,0.062 -0.439,3.891 1.143,2.27c0.272,-0.278 -0.011,-0.826 0.261,-1.104l-62.444,-120.912l0,-0Z" style="fill:#fff;"/></svg>